<svg width="21" height="25" viewBox="0 0 21 25" fill="none" xmlns="http://www.w3.org/2000/svg">
<path d="M5.66536 24.5837H15.332C17.9904 24.5837 20.1654 22.4087 20.1654 19.7503V6.45866C20.1654 4.04199 18.4737 2.10866 16.1779 1.74616C15.6945 0.900325 14.8487 0.416992 13.882 0.416992H7.11536C6.1487 0.416992 5.30287 0.900325 4.81953 1.74616C2.5237 2.10866 0.832031 4.04199 0.832031 6.45866V19.7503C0.832031 22.4087 3.00703 24.5837 5.66536 24.5837ZM6.8737 2.95449C6.8737 2.95449 6.99453 2.83366 7.11536 2.83366H14.0029L14.1237 2.95449V3.80033C14.1237 3.92116 14.0029 4.04199 13.882 4.04199H7.11536C6.99453 4.04199 6.8737 3.92116 6.8737 3.80033V2.95449ZM3.2487 6.45866C3.2487 5.49199 3.73203 4.76699 4.45703 4.28366V4.40449C4.45703 4.52533 4.57786 4.64616 4.57786 4.76699C4.57786 4.76699 4.57786 4.88783 4.6987 4.88783C4.6987 5.00866 4.81953 5.12949 4.81953 5.12949L4.94036 5.25033C4.94036 5.37116 5.0612 5.37116 5.18203 5.49199L5.30286 5.61283L5.54453 5.85449L5.66536 5.97533C5.7862 5.97533 5.7862 6.09616 5.90703 6.09616C5.90703 6.09616 6.02786 6.09616 6.02786 6.21699C6.1487 6.21699 6.26953 6.33783 6.39037 6.33783H6.5112C6.75286 6.45866 6.8737 6.45866 7.11536 6.45866H14.607C14.7279 6.45866 14.8487 6.45866 14.9695 6.33783C14.9695 6.33783 15.0904 6.33783 15.0904 6.21699C15.2112 6.21699 15.2112 6.09616 15.332 6.09616L15.4529 5.97533C15.5737 5.97533 15.5737 5.85449 15.6945 5.73366L15.8154 5.61283L16.057 5.37116L16.1779 5.25033C16.1779 5.12949 16.2987 5.12949 16.2987 5.00866C16.2987 5.00866 16.2987 4.88783 16.4195 4.88783C16.4195 4.76699 16.5404 4.64616 16.5404 4.52533V4.40449C17.2654 4.76699 17.7487 5.61282 17.7487 6.57949V19.8712C17.7487 21.2003 16.6612 22.2878 15.332 22.2878H5.66536C4.3362 22.2878 3.2487 21.2003 3.2487 19.8712V6.45866Z" fill="#2F2F2F"/>
</svg>
